<svg width="19" height="21" viewBox="0 0 19 21" fill="none" xmlns="http://www.w3.org/2000/svg">
<path fill-rule="evenodd" clip-rule="evenodd" d="M3.044 4.58025C12.8924 3.243 15.3194 3.40712 16.8499 5.1499C18.3803 6.89269 18.022 12.638 16.233 14.237C14.445 15.836 6.68 15.988 4.22 14.237C1.621 12.386 3.129 6.692 3.044 3.243C3.095 1.313 1 1 1 1" fill="white"/>
<path d="M3.044 4.58025C12.8924 3.243 15.3194 3.40712 16.8499 5.1499C18.3803 6.89269 18.022 12.638 16.233 14.237C14.445 15.836 6.68 15.988 4.22 14.237C1.621 12.386 3.129 6.692 3.044 3.243C3.095 1.313 1 1 1 1" stroke="white" stroke-width="1.5" stroke-linecap="round" stroke-linejoin="round"/>
<path d="M11.5059 8.86963H14.2789" stroke="#FA662E" stroke-width="1.5" stroke-linecap="round" stroke-linejoin="round"/>
<path fill-rule="evenodd" clip-rule="evenodd" d="M4.61385 18.2773C4.91385 18.2773 5.15785 18.5213 5.15785 18.8213C5.15785 19.1223 4.91385 19.3663 4.61385 19.3663C4.31285 19.3663 4.06885 19.1223 4.06885 18.8213C4.06885 18.5213 4.31285 18.2773 4.61385 18.2773Z" fill="white" stroke="white" stroke-width="1.5" stroke-linecap="round" stroke-linejoin="round"/>
<path fill-rule="evenodd" clip-rule="evenodd" d="M14.9452 18.2773C15.2462 18.2773 15.4902 18.5213 15.4902 18.8213C15.4902 19.1223 15.2462 19.3663 14.9452 19.3663C14.6452 19.3663 14.4012 19.1223 14.4012 18.8213C14.4012 18.5213 14.6452 18.2773 14.9452 18.2773Z" fill="white" stroke="white" stroke-width="1.5" stroke-linecap="round" stroke-linejoin="round"/>
</svg>
