<svg width="46" height="46" viewBox="0 0 46 46" fill="none" xmlns="http://www.w3.org/2000/svg">
<path d="M35.668 17.6991L37.4648 45.9999C37.6259 45.9999 37.7862 45.971 37.9381 45.9141C37.9745 45.9051 38.0203 45.8949 38.0741 45.8825C38.8191 45.7102 40.798 45.2527 42.5888 43.7805C44.8524 41.9199 46 39.1904 46 35.6678V17.6991H35.668Z" fill="#FF7038"/>
<path d="M0 17.6991V32.0741C0 32.6476 0.362879 33.1582 0.904367 33.3467L37.0216 45.9249C37.1657 45.9752 37.3154 45.9999 37.4648 45.9999H37.4648V17.6991H0Z" fill="#FFDE46"/>
<path d="M21.293 40.4473L37.0216 45.9249C37.1657 45.9752 37.3154 45.9999 37.4648 45.9999H37.4648V17.6991H21.293V40.4473Z" fill="#FF9D21"/>
<path d="M0 25.8443L37.4648 38.8918V36.0376L0 22.9903V25.8443Z" fill="#F5F0EB"/>
<path d="M21.293 33.2598L37.4648 38.8918V36.0376L21.293 30.4057V33.2598Z" fill="#EBE1DC"/>
<path d="M38.149 3.95991C37.8072 3.75848 37.3941 3.71796 37.0197 3.84896C35.1982 4.48649 28.1608 6.93554 20.7104 9.52852C12.2312 12.4794 3.4633 15.5309 0.902481 16.4271C0.361353 16.6165 -0.000717682 17.1275 1.06816e-06 17.7008C0.000719818 18.2741 0.364048 18.7842 0.905626 18.9722L24.4375 27.1674V33.871C24.4375 35.6076 25.8454 37.0155 27.582 37.0155C29.3187 37.0155 30.7266 35.6076 30.7266 33.871V29.3576L37.0197 31.5492C37.394 31.6803 37.8072 31.6397 38.149 31.4383C38.4697 31.2493 46 26.7081 46 17.6991C46 17.327 45.9108 8.53377 38.149 3.95991Z" fill="#FFEF7B"/>
<path d="M38.149 3.95991C37.8072 3.75848 37.3941 3.71796 37.0197 3.84896C35.2457 4.46978 28.5247 6.80895 21.293 9.32574V26.0723L24.4375 27.1674V33.871C24.4375 35.6076 25.8454 37.0155 27.582 37.0155C29.3187 37.0155 30.7266 35.6076 30.7266 33.871V29.3576L37.0197 31.5492C37.394 31.6803 37.8072 31.6397 38.149 31.4383C38.4697 31.2493 46 26.7081 46 17.6991C46 17.327 45.9108 8.53377 38.149 3.95991Z" fill="#FFDE46"/>
<path d="M37.0156 13.2069C37.7599 13.2069 38.3633 12.6035 38.3633 11.8592C38.3633 11.115 37.7599 10.5116 37.0156 10.5116C36.2713 10.5116 35.668 11.115 35.668 11.8592C35.668 12.6035 36.2713 13.2069 37.0156 13.2069Z" fill="#FF9D21"/>
<path d="M38.8125 19.496C39.5568 19.496 40.1602 18.8926 40.1602 18.1483C40.1602 17.404 39.5568 16.8006 38.8125 16.8006C38.0682 16.8006 37.4648 17.404 37.4648 18.1483C37.4648 18.8926 38.0682 19.496 38.8125 19.496Z" fill="#FF9D21"/>
<path d="M34.3203 24.8866C35.0646 24.8866 35.668 24.2832 35.668 23.5389C35.668 22.7946 35.0646 22.1913 34.3203 22.1913C33.576 22.1913 32.9727 22.7946 32.9727 23.5389C32.9727 24.2832 33.576 24.8866 34.3203 24.8866Z" fill="#FF9D21"/>
<path d="M31.625 18.5975C32.3693 18.5975 32.9727 17.9942 32.9727 17.2499C32.9727 16.5056 32.3693 15.9022 31.625 15.9022C30.8807 15.9022 30.2773 16.5056 30.2773 17.2499C30.2773 17.9942 30.8807 18.5975 31.625 18.5975Z" fill="#FF9D21"/>
<path d="M21.293 8.08608C20.5487 8.08608 19.9453 7.48269 19.9453 6.73842C19.9453 5.03552 18.9991 3.5045 17.476 2.7428L17.0966 2.55314C16.4308 2.22036 16.161 1.41078 16.4939 0.745124C16.8269 0.0794721 17.6365 -0.190329 18.3019 0.142453L18.6813 0.332113C21.1236 1.55327 22.6407 4.00798 22.6407 6.73842C22.6407 7.48269 22.0373 8.08608 21.293 8.08608Z" fill="#BEDA4B"/>
<path d="M21.293 8.08599C22.0372 8.08599 22.6406 7.4826 22.6406 6.73833C22.6406 5.19491 22.1556 3.7398 21.293 2.5455V8.08599Z" fill="#14CD6E"/>
<path d="M21.293 17.0702C18.0729 17.0702 15.4531 14.4504 15.4531 11.2303C15.4531 8.01025 18.0729 5.39049 21.293 5.39049C24.5131 5.39049 27.1328 8.01025 27.1328 11.2303C27.1328 14.4504 24.5131 17.0702 21.293 17.0702Z" fill="#FF4169"/>
<path d="M27.1328 11.2303C27.1328 8.01025 24.5131 5.39049 21.293 5.39049V17.0702C24.5131 17.0702 27.1328 14.4504 27.1328 11.2303Z" fill="#CF3160"/>
</svg>
