<svg width="49" height="45" viewBox="0 0 49 45" fill="none" xmlns="http://www.w3.org/2000/svg">
<path d="M24.7799 33.0475C22.6511 34.6833 21.4602 37.2593 21.5932 39.9407C21.6136 41.3681 21.3305 42.7835 20.7627 44.0932C28.1874 40.6715 30.1142 36.4608 30.5959 34.1603L24.7799 33.0475Z" fill="#E57E25"/>
<path d="M49 25.822C49 26.6525 49 27.4831 46.5084 27.4831C44.0169 27.4831 43.1864 27.4831 39.0339 30.8051C34.8813 34.1271 30.7288 34.1271 24.0847 34.9576C17.4406 35.7881 14.1186 39.1102 10.7966 39.1102C7.47455 39.1102 4.98302 38.2797 4.98302 32.4661C4.98302 29.0112 5.86336 27.6159 6.5776 27.0429C5.94371 27.3385 5.38025 27.7661 4.92489 28.297C4.35988 28.9272 3.51999 29.2376 2.68091 29.1263C1.84183 29.015 1.11194 28.4963 0.730819 27.7405C-0.243606 25.4537 -0.243606 22.8684 0.730819 20.5815C1.07234 19.8961 1.70379 19.4004 2.45073 19.2313C3.19766 19.0623 3.98102 19.2379 4.58438 19.7095C3.87845 18.389 3.32201 16.1798 3.32201 12.5339C3.32201 2.5678 5.81353 0.90678 12.4576 0.90678C24.5498 0.90678 31.4513 5.30017 35.089 9.36966C35.983 10.3597 36.7682 11.4428 37.431 12.6003C37.7243 13.1137 37.9824 13.6465 38.2034 14.1949C39.8644 18.3475 41.5254 22.5 44.8474 23.3305C48.1695 24.161 49 23.3305 49 25.822Z" fill="#F0C419"/>
<path d="M13.2881 24.161C14.019 30.7469 16.0454 34.7583 13.6701 38.4541C12.7611 38.8486 11.7868 39.071 10.7966 39.1102C7.47455 39.1102 4.98302 38.2797 4.98302 32.4661C4.98302 32.0758 4.99133 31.7103 5.01624 31.3698C5.17404 28.7786 5.90489 27.6159 6.52777 27.0844C6.54438 27.0678 6.56099 27.0595 6.5776 27.0429C5.94371 27.3385 5.38025 27.7661 4.92489 28.2969C4.35988 28.9272 3.51999 29.2376 2.68091 29.1263C1.84183 29.015 1.11194 28.4963 0.730819 27.7405C-0.243606 25.4537 -0.243606 22.8684 0.730819 20.5815C1.07234 19.8961 1.70379 19.4004 2.45073 19.2313C3.19766 19.0623 3.98102 19.2379 4.58438 19.7095C4.56777 19.6846 4.55946 19.6597 4.54285 19.6347C4.03421 18.566 3.7032 17.4215 3.56285 16.2463C3.39365 15.0162 3.31316 13.7755 3.322 12.5339C3.322 4.56102 4.91658 1.90339 8.96116 1.15593C11.2284 2.45983 14.4259 5.00119 14.9491 9.21186C15.7796 15.8559 12.4576 16.6864 13.2881 24.161Z" fill="#F29C1F"/>
<path d="M24.0847 20.839C24.0847 27.4664 24.7408 31.4778 22.5732 35.1985C21.6636 35.376 20.7652 35.6061 19.8823 35.8878C20.463 34.2561 20.7608 32.5371 20.7627 30.8051V19.178C20.7627 16.6864 20.4388 11.0556 18.2711 6.72034C17.2488 4.64914 15.977 2.71074 14.484 0.948307C15.8959 1.00644 17.2413 1.13102 18.5037 1.30543C19.8072 2.3038 20.8642 3.58808 21.5932 5.05932C24.0847 10.0424 24.0847 13.3644 24.0847 20.839Z" fill="#F29C1F"/>
<path d="M33.2202 21.6695C33.2202 29.0776 32.5475 32.2003 31.418 34.0192C30.2138 34.2351 28.9348 34.3929 27.5229 34.559C28.8601 33.0059 30.3882 29.5012 29.8982 21.6695C29.1757 10.1254 28.4531 7.98271 26.1028 3.26543C27.5713 3.84003 28.9836 4.54897 30.3218 5.38322V5.39153C32.2652 10.5974 33.2473 16.1128 33.2202 21.6695Z" fill="#F29C1F"/>
<path d="M9.77507 19.8424C9.78869 20.0627 9.714 20.2795 9.56752 20.4446C9.42103 20.6098 9.2148 20.7099 8.99439 20.7227C8.96948 20.7227 8.87812 20.731 8.73693 20.731C7.26829 20.7293 5.82451 20.3519 4.54287 19.6347C4.03422 18.566 3.70322 17.4215 3.56287 16.2463C3.57117 16.2546 3.57117 16.2629 3.57948 16.2712C5.06609 19.2527 8.8532 19.07 8.89473 19.0617C9.35273 19.0361 9.74569 19.3846 9.77507 19.8424Z" fill="#E57E25"/>
<path d="M9.83318 27.317C9.78933 27.7697 9.38946 28.1029 8.93623 28.0644C8.84488 28.0644 6.63573 27.9564 5.18234 31.1373C5.14157 31.2243 5.08528 31.3031 5.01624 31.3698C5.17403 28.7786 5.90488 27.6159 6.52776 27.0844C7.2979 26.6187 8.1861 26.3851 9.08573 26.4117C9.542 26.4555 9.87653 26.8606 9.83318 27.317Z" fill="#E57E25"/>
<path d="M9.13557 12.5339C10.5116 12.5339 11.6271 11.4184 11.6271 10.0424C11.6271 8.66634 10.5116 7.55085 9.13557 7.55085C7.75954 7.55085 6.64404 8.66634 6.64404 10.0424C6.64404 11.4184 7.75954 12.5339 9.13557 12.5339Z" fill="#D25627"/>
<path d="M38.0206 19.6597L37.8296 23.8454C37.6203 26.0163 37.1747 28.1578 36.5008 30.232C36.3881 30.5726 36.0706 30.8033 35.7118 30.8051C35.6245 30.8035 35.5378 30.7895 35.4544 30.7636C35.0189 30.6211 34.781 30.1528 34.9229 29.7171C35.5593 27.7708 35.9771 25.7596 36.1686 23.7208L36.3596 19.6264C36.3331 16.17 35.9067 12.7281 35.089 9.36966C35.983 10.3597 36.7681 11.4427 37.431 12.6003C37.8007 14.9358 37.9978 17.2953 38.0206 19.6597Z" fill="#F29C1F"/>
<path d="M44.8474 19.178C45.7648 19.178 46.5084 18.4343 46.5084 17.5169C46.5084 16.5996 45.7648 15.8559 44.8474 15.8559C43.9301 15.8559 43.1864 16.5996 43.1864 17.5169C43.1864 18.4343 43.9301 19.178 44.8474 19.178Z" fill="#3B97D3"/>
<path d="M45.6779 11.7034C47.054 11.7034 48.1694 10.5879 48.1694 9.21186C48.1694 7.83583 47.054 6.72034 45.6779 6.72034C44.3019 6.72034 43.1864 7.83583 43.1864 9.21186C43.1864 10.5879 44.3019 11.7034 45.6779 11.7034Z" fill="#3B97D3"/>
<path d="M41.5255 14.1949C41.9841 14.1949 42.356 13.8231 42.356 13.3644C42.356 12.9057 41.9841 12.5339 41.5255 12.5339C41.0668 12.5339 40.6949 12.9057 40.6949 13.3644C40.6949 13.8231 41.0668 14.1949 41.5255 14.1949Z" fill="#2980BA"/>
<path d="M35.7119 24.161C37.0879 24.161 38.2034 23.0455 38.2034 21.6695C38.2034 20.2935 37.0879 19.178 35.7119 19.178C34.3358 19.178 33.2203 20.2935 33.2203 21.6695C33.2203 23.0455 34.3358 24.161 35.7119 24.161Z" fill="#ECF0F1"/>
<path d="M36.5424 23.3305C37.4597 23.3305 38.2034 22.5868 38.2034 21.6695C38.2034 20.7521 37.4597 20.0085 36.5424 20.0085C35.625 20.0085 34.8813 20.7521 34.8813 21.6695C34.8813 22.5868 35.625 23.3305 36.5424 23.3305Z" fill="#35495E"/>
<path d="M35.7119 21.6695C36.1705 21.6695 36.5424 21.2977 36.5424 20.839C36.5424 20.3803 36.1705 20.0085 35.7119 20.0085C35.2532 20.0085 34.8813 20.3803 34.8813 20.839C34.8813 21.2977 35.2532 21.6695 35.7119 21.6695Z" fill="#ECF0F1"/>
</svg>
