<svg width="39" height="53" viewBox="0 0 39 53" fill="none" xmlns="http://www.w3.org/2000/svg">
<path d="M14.8236 4.67647C14.8236 4.99166 14.6076 5.26903 14.2987 5.35092C2.52752 8.46867 -3.43612 28.7685 4.22154 40.4141C6.60041 44.0317 10.0854 46.5335 14.2989 47.6488C14.6079 47.7308 14.8236 48.0078 14.8236 48.3234C14.8236 50.907 16.9159 52.9999 19.5001 52.9999L20.5393 25.9803L19.5001 -0.000106812C16.9164 -2.88993e-06 14.8236 2.09235 14.8236 4.67647Z" fill="#FFD92E"/>
<path d="M32.3926 10.603L22.0011 0.722459C21.9091 0.682761 20.9604 -3.8147e-06 19.5001 -3.8147e-06V53C22.0838 53 24.1766 50.9074 24.1766 48.3235C24.1766 48.0087 24.3966 47.7304 24.7116 47.6468C33.6086 45.2852 38.206 37.1835 38.206 28.0588C38.206 17.2799 32.3981 10.6135 32.3926 10.603Z" fill="#FCBE00"/>
<path d="M35.4288 8.95409C35.4185 8.95502 30.1197 10.9416 26.4363 8.69304C22.7954 6.46995 22.1115 0.936851 22.0964 0.815159C22.0964 0.814224 22.0964 0.813288 22.0964 0.813288C22.0964 0.813288 27.4071 -1.17338 31.0881 1.07434C34.7702 3.32299 35.4288 8.95409 35.4288 8.95409Z" fill="#27D072"/>
<path d="M10.1471 34.2941H13.2647V37.4118H10.1471V34.2941Z" fill="#FCBE00"/>
<path d="M7.02954 28.0588H10.1472V31.1765H7.02954V28.0588Z" fill="#FCBE00"/>
<path d="M13.2648 24.9412H16.3824V28.0588H13.2648V24.9412Z" fill="#FCBE00"/>
</svg>
