<svg width="24" height="19" viewBox="0 0 24 19" fill="none" xmlns="http://www.w3.org/2000/svg">
<path d="M19.5255 0.966253C19.2322 0.673002 18.7582 0.673002 18.465 0.966253L16.392 3.03925C15.0802 2.51125 13.6155 2.17075 12 2.17075C4.80072 2.17075 0.303724 9.15551 0.116224 9.45326C0.00522411 9.62951 -0.0232759 9.83426 0.0202241 10.0225C-0.0157759 10.201 0.00747411 10.3923 0.110224 10.5603C0.214474 10.7313 1.70172 13.102 4.34172 15.091L2.59947 16.8325C2.30622 17.1258 2.30622 17.5998 2.59947 17.893C2.74572 18.0393 2.93772 18.1128 3.12972 18.1128C3.32172 18.1128 3.51372 18.0393 3.65997 17.893L19.5255 2.02675C19.818 1.73425 19.818 1.2595 19.5255 0.966253ZM7.67997 9.95576C7.67997 7.57376 9.61797 5.63576 12 5.63576C12.534 5.63576 13.044 5.73626 13.5157 5.91476L12.27 7.16051C12.18 7.15076 12.0922 7.13576 12 7.13576C10.4452 7.13576 9.17997 8.40101 9.17997 9.95576C9.17997 10.048 9.19572 10.1358 9.20472 10.2258L7.95897 11.4715C7.78047 11.0005 7.67997 10.4898 7.67997 9.95576ZM23.8837 10.5468C23.6962 10.8438 19.1992 17.8293 12 17.8293C10.1205 17.8293 8.44047 17.3725 6.97422 16.6915L9.92397 13.741C10.5405 14.0808 11.2485 14.275 12.0007 14.275C14.3827 14.275 16.3207 12.337 16.3207 9.95501C16.3207 9.20276 16.1265 8.49551 15.7867 7.87826L19.1392 4.52576C22.1047 6.57926 23.7802 9.25751 23.8905 9.43901C23.9932 9.60701 24.0165 9.79826 23.9805 9.97676C24.0232 10.1665 23.9955 10.3705 23.8837 10.5468ZM11.0625 12.6033L14.6475 9.01901C14.7525 9.31376 14.82 9.62651 14.82 9.95651C14.82 11.5113 13.5547 12.7765 12 12.7765C11.67 12.7758 11.3572 12.7083 11.0625 12.6033Z" fill="url(#paint0_linear_6_77)"/>
<defs>
<linearGradient id="paint0_linear_6_77" x1="0.000793412" y1="9.42953" x2="24.1876" y2="9.42953" gradientUnits="userSpaceOnUse">
<stop stop-color="#FF8B38"/>
<stop offset="1" stop-color="#F3664B"/>
</linearGradient>
</defs>
</svg>
