<svg width="166" height="30" viewBox="0 0 166 30" fill="none" xmlns="http://www.w3.org/2000/svg">
<path d="M16.0604 29.279V21.4963H8.63292V0.445567H0.831787V29.279H16.0604ZM26.6565 29.279C30.4403 29.279 34.0372 27.2162 35.1116 23.5592C37.1203 16.6673 39.3158 9.72854 39.3158 7.61877C39.3158 3.49301 36.186 0.49245 32.0753 0.49245H22.2655C18.0145 0.49245 14.6512 3.11794 14.6512 7.57189C14.6512 10.1974 17.9678 20.418 18.9021 23.6061C19.9298 27.0755 23.2464 29.279 26.6565 29.279ZM27.7776 20.8869C27.6375 21.3088 27.3105 21.5432 26.9835 21.5432C26.6565 21.5432 26.3295 21.3088 26.1427 20.8869L22.499 8.32203H31.4213L27.7776 20.8869ZM64.7625 29.279L57.0548 14.792C57.5219 14.2763 57.8956 13.8074 58.1759 13.4324C60.3247 10.3849 62.3334 4.00873 63.9216 0.445567H55.5132L52.1031 8.4158C51.8229 9.11905 51.0287 9.96296 50.328 10.338V0.445567H42.5736V10.4318H40.3314V18.1676H42.5736V29.279H50.328V18.6833L55.9337 29.279H64.7625ZM95.0443 29.279V0.445567H86.9629L81.0303 10.3849L75.0509 0.445567H66.9695V29.279H74.6772V14.7451L81.077 25.2002L87.3366 14.8389V29.279H95.0443ZM117.157 29.279V0.398682H115.569C104.685 0.398682 97.2572 9.2597 97.2572 19.1522V29.279H105.012V22.9966H109.449V29.279H117.157ZM109.449 15.2608H105.525C106.273 12.8697 107.487 10.8537 109.449 9.44724V15.2608ZM143.251 29.279C140.868 26.1847 137.739 22.2934 135.309 19.1053C136.244 17.6519 138.487 11.8383 139.046 9.82231C139.233 9.11905 139.374 8.27515 139.374 7.43124C139.374 3.35236 135.729 0.445567 132.226 0.445567H119.334V29.279H127.041V22.9966H128.302L133.394 29.279H143.251ZM131.386 8.46268L129.144 14.0887C128.769 15.0264 128.21 15.2608 127.743 15.2608H127.041V8.27514H131.386V8.46268ZM165.107 8.27514V0.445567H142.824V8.27514H150.065V29.279H157.819V8.27514H165.107Z" fill="white"/>
</svg>
