<svg width="49" height="49" viewBox="0 0 49 49" fill="none" xmlns="http://www.w3.org/2000/svg">
<path d="M11.928 30.9384L5.44826 37.4182C3.89049 37.0029 2.18092 37.4839 1.07016 38.7417C-0.385545 40.391 -0.352198 42.9459 1.14611 44.5582C1.56651 45.0103 2.06363 45.3602 2.6261 45.5992C2.80141 45.6736 2.95783 45.7796 3.0891 45.9109L9.36114 41.0018L14.9949 34.005L14.1316 31.7788L11.928 30.9384Z" fill="#F2F2FC"/>
<path d="M11.5817 43.5517L18.0614 37.072L17.1301 34.7776L14.9948 34.0051L3.08899 45.911C3.22026 46.0421 3.32627 46.1986 3.40068 46.3741C3.63941 46.9359 3.98984 47.4335 4.44166 47.854C6.05398 49.3522 8.60889 49.3856 10.2584 47.9296C11.5162 46.8191 11.9971 45.1095 11.5817 43.5517Z" fill="#E2D9FB"/>
<path d="M27.2618 1.29311L20.312 8.24308C17.9604 10.5944 16.4813 13.6727 16.1137 16.9786C15.8205 19.6195 14.624 22.1091 12.7446 23.9885L8.86133 27.8718L14.9948 34.0052L24.5358 25.8272L32.3731 16.6269L27.2618 1.29311Z" fill="#D9185A"/>
<path d="M32.3731 16.6269L14.9946 34.0051L21.1282 40.1387L25.0115 36.2555C26.8871 34.3798 29.3533 33.1832 32.0213 32.8863C35.3124 32.521 38.4149 31.03 40.7568 28.6881L47.7067 21.7381L32.3731 16.6269Z" fill="#B10042"/>
<path d="M34.3892 0.769392C31.3136 -0.413463 28.7824 -0.227452 27.2619 1.29311C25.7413 2.81378 25.5553 5.34497 26.7381 8.42041C27.7745 11.1151 29.7757 14.0295 32.3731 16.6268L38.1658 12.197L42.5955 6.40437C39.9982 3.80696 37.0838 1.80585 34.3892 0.769392Z" fill="#F84E57"/>
<path d="M48.2305 14.6109C47.1941 11.9163 45.1929 9.00187 42.5955 6.40437L32.373 16.6269V16.627C34.9704 19.2243 37.8848 21.2256 40.5794 22.2619C43.655 23.4448 46.1861 23.2588 47.7067 21.7382C49.2274 20.2176 49.4134 17.6864 48.2305 14.6109Z" fill="#D9185A"/>
<path d="M37.4843 9.47124L35.4397 11.5157L36.462 12.5379L38.1657 12.1971L38.5064 10.4933L37.4843 9.47124Z" fill="#FED2A4"/>
<path d="M36.4568 12.5405L38.501 10.4963L39.5231 11.5185L37.479 13.5627L36.4568 12.5405Z" fill="#FFBD86"/>
</svg>
