<svg width="25" height="27" viewBox="0 0 25 27" fill="none" xmlns="http://www.w3.org/2000/svg">
<path fill-rule="evenodd" clip-rule="evenodd" d="M12 20.8476C17.6392 20.8476 20.2481 20.1242 20.5 17.2205C20.5 14.3188 18.6812 14.5054 18.6812 10.9451C18.6812 8.16414 16.0452 5 12 5C7.95477 5 5.31885 8.16414 5.31885 10.9451C5.31885 14.5054 3.5 14.3188 3.5 17.2205C3.75295 20.1352 6.36177 20.8476 12 20.8476Z" stroke="#303733" stroke-width="1.5" stroke-linecap="round" stroke-linejoin="round"/>
<path d="M14.3887 23.8572C13.0246 25.3719 10.8966 25.3899 9.51941 23.8572" stroke="#303733" stroke-width="1.5" stroke-linecap="round" stroke-linejoin="round"/>
<circle cx="18.5" cy="6.5" r="6.5" fill="#FA662E"/>
<path d="M18.5732 10.1318C17.8701 10.1318 17.2858 9.93815 16.8203 9.55078C16.3548 9.16016 16.1058 8.65723 16.0732 8.04199H17.1182C17.1572 8.3903 17.3118 8.6735 17.582 8.8916C17.8555 9.1097 18.1891 9.21875 18.583 9.21875C19.0257 9.21875 19.387 9.07878 19.667 8.79883C19.9469 8.51888 20.0869 8.15755 20.0869 7.71484C20.0869 7.27214 19.9469 6.90918 19.667 6.62598C19.3903 6.33952 19.0322 6.19629 18.5928 6.19629C18.2868 6.19629 18.0085 6.26302 17.7578 6.39648C17.5104 6.52669 17.3184 6.70736 17.1816 6.93848H16.1807L16.5518 2.9541H20.7461V3.87695H17.4307L17.2354 6.04004H17.2598C17.416 5.81543 17.6309 5.64128 17.9043 5.51758C18.181 5.39062 18.4902 5.32715 18.832 5.32715C19.5091 5.32715 20.0658 5.55013 20.502 5.99609C20.9382 6.4388 21.1562 7.00195 21.1562 7.68555C21.1562 8.4082 20.9154 8.9974 20.4336 9.45312C19.9551 9.9056 19.335 10.1318 18.5732 10.1318Z" fill="white"/>
</svg>
