<svg width="19" height="19" viewBox="0 0 19 19" fill="none" xmlns="http://www.w3.org/2000/svg">
<path d="M17.7366 9.7461C17.6602 9.58968 17.6602 9.4103 17.7366 9.25392L18.4452 7.80425C18.8398 6.99709 18.5272 6.03503 17.7336 5.61396L16.3082 4.85767C16.1544 4.77611 16.049 4.63093 16.0189 4.45953L15.7401 2.87018C15.5849 1.98527 14.7664 1.39064 13.877 1.51647L12.2793 1.74247C12.1068 1.76681 11.9363 1.71137 11.8112 1.59036L10.6515 0.468475C10.0058 -0.156221 8.99421 -0.156258 8.34851 0.468475L7.18877 1.59047C7.06364 1.71152 6.89312 1.76685 6.72071 1.74258L5.12305 1.51659C4.23336 1.39067 3.4151 1.98539 3.25988 2.87029L2.98111 4.45956C2.95102 4.63101 2.84559 4.77614 2.69185 4.85775L1.26648 5.61403C0.472868 6.03507 0.16026 6.9972 0.554805 7.80436L1.2634 9.25399C1.33985 9.41041 1.33985 9.58979 1.2634 9.74617L0.554768 11.1958C0.160223 12.003 0.472831 12.965 1.26645 13.3861L2.69181 14.1424C2.84559 14.2239 2.95102 14.3691 2.98111 14.5405L3.25988 16.1299C3.40119 16.9354 4.09194 17.5004 4.88581 17.5003C4.964 17.5003 5.04334 17.4948 5.12309 17.4835L6.72075 17.2575C6.89305 17.2331 7.06368 17.2886 7.18881 17.4097L8.34851 18.5315C8.67143 18.8439 9.08564 19.0001 9.50001 19C9.91426 19 10.3287 18.8439 10.6515 18.5315L11.8112 17.4097C11.9364 17.2886 12.1069 17.2334 12.2793 17.2575L13.877 17.4835C14.7668 17.6094 15.5849 17.0147 15.7401 16.1298L16.0189 14.5406C16.049 14.3691 16.1545 14.224 16.3082 14.1424L17.7336 13.3861C18.5272 12.9651 18.8398 12.0029 18.4452 11.1958L17.7366 9.7461ZM7.3083 4.56874C8.41608 4.56874 9.31735 5.47001 9.31735 6.57779C9.31735 7.68558 8.41608 8.58685 7.3083 8.58685C6.20052 8.58685 5.29925 7.68558 5.29925 6.57779C5.29925 5.47001 6.20052 4.56874 7.3083 4.56874ZM6.27132 13.5035C6.16434 13.6105 6.0241 13.664 5.8839 13.664C5.7437 13.664 5.60343 13.6105 5.49648 13.5035C5.28251 13.2895 5.28251 12.9426 5.49648 12.7286L12.7287 5.49647C12.9426 5.2825 13.2896 5.2825 13.5035 5.49647C13.7175 5.71044 13.7175 6.05737 13.5035 6.27135L6.27132 13.5035ZM11.6916 14.4313C10.5839 14.4313 9.68258 13.53 9.68258 12.4223C9.68258 11.3145 10.5839 10.4132 11.6916 10.4132C12.7994 10.4132 13.7007 11.3145 13.7007 12.4223C13.7007 13.53 12.7994 14.4313 11.6916 14.4313Z" fill="#FA662E"/>
</svg>
